<?xml version="1.0" encoding="UTF-8" standalone="no"?>
<!-- Created with Inkscape (http://www.inkscape.org/) -->

<svg
   xmlns:svg="http://www.w3.org/2000/svg"
   xmlns="http://www.w3.org/2000/svg"
   xmlns:sodipodi="http://sodipodi.sourceforge.net/DTD/sodipodi-0.dtd"
   xmlns:inkscape="http://www.inkscape.org/namespaces/inkscape"
   width="1000.027"
   height="379.739"
   viewBox="0 0 264.59047 100.47262"
   version="1.1"
   id="svg426">
  <g
     id="layer1">
    <path
       d="m 13.357201,11.30388 c 4.707861,0 7.444903,1.587563 10.674876,6.295425 l -4.65314,2.901309 c 0,0 -1.916103,-3.83194 -6.295424,-3.83194 -4.379453,0 -4.981679,3.886652 -4.981679,4.926836 0,1.040051 -0.273695,3.503405 6.623956,6.350132 6.897522,2.846618 11.495948,6.076445 11.495948,13.19307 0,7.1165 -5.200654,11.003154 -12.317149,11.003154 -7.116494,0 -11.38652,-2.90131 -13.904589,-8.101839 l 4.92683,-2.846728 c 0,0 2.518194,5.583772 8.649352,5.583772 6.131157,0 6.733379,-4.543588 6.733379,-5.638359 0,-1.09489 0.109433,-4.215185 -7.992541,-7.445028 -8.101839,-3.229988 -9.963097,-7.499742 -9.963097,-11.715059 0,-4.215201 2.080249,-10.674745 11.003278,-10.674745 z"
       id="path111"
       style="stroke-width:0.503113" />
    <polygon
       points="59.518,23.121 71.269,23.121 71.269,66.426 108.264,66.426 108.264,23.121 119.797,23.121 119.797,102.659 107.938,102.659 107.938,77.307 71.16,77.307 71.16,102.768 59.518,102.768 "
       id="polygon113"
       transform="scale(0.50311352)" />
    <path
       d="M 78.993764,11.24904 H 79.59587 L 96.347312,51.758735 H 90.270736 L 88.026348,46.010693 H 70.508679 l -2.299336,5.583775 h -5.638362 z m -6.45956,29.561144 H 85.836702 L 79.212743,22.744993 Z"
       id="path115"
       style="stroke-width:0.503113" />
    <polygon
       points="207.279,23.338 195.637,23.338 195.637,102.877 207.606,102.877 207.606,79.81 216.201,70.235 239.486,102.768 253.523,102.768 223.709,60.442 250.802,23.229 237.31,23.229 207.279,66.644 "
       id="polygon117"
       transform="scale(0.50311352)" />
    <path
       d="m 13.357207,59.108 c 4.707859,0 7.445159,1.58757 10.674886,6.295425 l -4.653156,2.901309 c 0,0 -1.915966,-3.831938 -6.29542,-3.831938 -4.379451,0 -4.981548,3.886653 -4.981548,4.926834 0,1.040056 -0.273693,3.503412 6.623837,6.350138 6.897647,2.846617 11.495938,6.076444 11.495938,13.193074 0,7.1165 -5.200523,11.00314 -12.317023,11.00314 -7.116626,0 -11.386527,-2.9013 -13.904721,-8.10183 l 4.926967,-2.84673 c 0,0 2.518082,5.58378 8.64923,5.58378 6.131273,0 6.73337,-4.54362 6.73337,-5.63836 0,-1.0949 0.109433,-4.21519 -7.992401,-7.44503 C 4.215185,78.267816 2.353929,73.998064 2.353929,69.782747 2.353929,65.567561 4.434172,59.108 13.357207,59.108 Z"
       id="path119"
       style="stroke-width:0.503113" />
    <polygon
       points="59.518,118.137 71.269,118.137 71.269,161.443 108.264,161.443 108.264,118.137 119.798,118.137 119.798,197.676 107.938,197.676 107.938,172.324 71.161,172.324 71.161,197.784 59.518,197.784 "
       id="polygon121"
       transform="scale(0.50311352)" />
    <path
       d="m 78.993769,59.053162 h 0.602226 l 16.751321,40.50969 h -6.076444 l -2.244505,-5.74803 H 70.508683 l -2.299086,5.58378 H 62.570981 Z M 72.53421,88.614322 H 85.836717 L 79.212749,70.549119 Z"
       id="path123"
       style="stroke-width:0.503113" />
    <polygon
       points="276.368,118.355 264.726,118.355 264.726,197.893 276.695,197.893 276.695,174.826 285.291,165.251 308.576,197.784 322.612,197.784 292.798,155.458 319.892,118.246 306.399,118.246 276.368,161.66 "
       id="polygon125"
       transform="scale(0.50311352)" />
    <polygon
       points="258.092,102.55 258.092,23.447 306.73,23.447 306.73,34.11 270.061,34.11 270.061,65.121 302.16,65.121 302.16,75.784 270.061,75.784 270.061,91.996 307.927,91.996 307.927,102.55 "
       id="polygon127"
       transform="scale(0.50311352)" />
    <path
       d="m 125.29271,70.845201 4.31689,-3.37081 c 0,0 -4.2578,-8.042492 -15.19799,-8.042492 -10.94033,0 -19.810721,8.22002 -19.810721,20.69771 0,12.477813 9.580101,20.343011 19.692411,20.343011 10.11231,0 15.43461,-7.332868 15.84849,-8.515698 l -4.61259,-3.19341 a 13.371781,13.371781 0 0 1 -11.29512,6.0911 c -7.806,0 -13.66051,-6.44589 -13.66051,-14.724999 0,-8.27911 5.61802,-15.07969 13.71973,-15.07969 8.10171,0 10.99941,5.795278 10.99941,5.795278 z"
       id="path129"
       style="stroke-width:0.503113" />
    <path
       d="m 255.86625,38.680586 h -73.68521 c -4.02462,0 -8.72443,-2.371974 -8.72443,-9.057845 C 173.45661,23.365613 181.29633,0 219.6483,0 c 26.26387,0 43.66366,14.581679 44.7642,28.117541 0.0947,0.781335 0.46471,4.959663 -2.09958,7.903873 -1.05771,1.212665 -3.03433,2.659172 -6.44667,2.659172 z M 219.6483,4.960211 c -33.89449,0 -41.23149,19.769057 -41.23149,24.66253 0,1.013678 0,4.097498 3.76423,4.097498 h 73.68521 c 1.8724,0 2.50013,-0.72046 2.70719,-0.957586 1.05634,-1.212666 0.98962,-3.502465 0.91345,-4.048695 l -0.0152,-0.148282 C 258.58949,17.165933 242.37704,4.960211 219.64833,4.960211 Z"
       id="path131"
       style="fill:#6cb33f;stroke-width:0.503113" />
    <path
       d="m 261.23646,53.969486 c -1.59859,0 -4.04267,-0.798692 -6.96089,-4.379412 -1.17,-1.437069 -2.12759,-1.478394 -2.44148,-1.491771 -1.28473,-0.06949 -3.09451,0.932847 -4.76398,2.651811 -2.10885,2.17355 -4.81606,3.324813 -7.41631,3.164528 -1.79241,-0.111468 -4.41673,-0.892096 -6.74866,-3.98059 a 3.6536103,3.6536103 0 0 0 -2.98768,-1.634026 5.0865934,5.0865934 0 0 0 -3.57386,1.587937 c -1.44243,1.836962 -4.15771,3.818389 -7.45257,3.868439 -1.86844,0.0074 -4.68915,-0.594363 -7.30677,-3.726209 -1.04116,-1.244808 -2.02079,-1.901126 -2.91098,-1.951341 -1.58397,-0.06604 -3.67068,1.682874 -5.2961,3.236081 a 8.3686796,8.3686796 0 0 1 -6.45474,2.414804 9.8254649,9.8254649 0 0 1 -6.52026,-3.157968 c -0.15166,-0.189013 -0.30114,-0.391961 -0.45678,-0.603666 -0.78337,-1.067838 -1.25684,-1.71294 -3.18532,-1.71294 -2.46486,0 -2.97634,0.682554 -4.34396,2.505585 -2.13089,2.84139 -5.99537,3.129271 -6.42877,3.153204 A 2.4802139,2.4802139 0 0 1 175.7036,48.96167 c 0.51217,-0.03598 2.1075,-0.328498 2.74466,-1.177246 1.57796,-2.104896 3.36694,-4.489496 8.31184,-4.489496 4.44149,0 6.22567,2.432049 7.18464,3.738952 0.11284,0.153587 0.22101,0.301832 0.33055,0.439414 a 5.1077846,5.1077846 0 0 0 3.03242,1.310178 3.4166439,3.4166439 0 0 0 2.64238,-1.054435 c 2.62172,-2.505611 5.53529,-4.807472 9.00043,-4.602442 2.31578,0.129646 4.48209,1.381706 6.43873,3.722245 1.08179,1.292809 2.21842,1.947899 3.37898,1.947899 h 0.0468 c 1.44501,-0.02204 2.89414,-1.038296 3.62868,-1.972516 a 9.8451015,9.8451015 0 0 1 7.43369,-3.484564 c 0.0294,0 0.0588,0 0.0868,5.02e-4 a 8.6463228,8.6463228 0 0 1 6.89949,3.604632 c 0.96034,1.271474 2.00204,1.950631 3.09726,2.018719 1.14319,0.06347 2.45075,-0.535539 3.54991,-1.668748 2.71925,-2.799373 5.77766,-4.269839 8.53834,-4.152226 1.59466,0.06865 3.94258,0.700496 6.07279,3.31413 1.72157,2.113539 2.77789,2.479489 3.04635,2.54092 a 2.4804101,2.4804101 0 0 1 1.98728,4.520248 3.9765741,3.9765741 0 0 1 -1.91919,0.451469 z"
       id="path133"
       style="fill:#6cb33f;stroke-width:0.503113" />
    <path
       d="m 255.65851,74.39896 h -73.68644 c -4.64977,0 -8.43246,-3.484142 -8.43246,-7.767114 0,-4.282969 3.7827,-7.767111 8.43246,-7.767111 h 73.68644 c 4.64948,0 8.4323,3.484142 8.4323,7.767111 0,4.282972 -3.78282,7.767114 -8.4323,7.767114 z M 181.97207,63.825082 c -1.88211,0 -3.47224,1.28529 -3.47224,2.806764 0,1.521477 1.59013,2.80676 3.47224,2.80676 h 73.68644 c 1.88199,0 3.47199,-1.285283 3.47199,-2.80676 0,-1.521474 -1.58998,-2.806764 -3.47199,-2.806764 z"
       id="path135"
       style="fill:#6cb33f;stroke-width:0.503113" />
    <path
       d="m 188.64865,100.29972 c -3.72456,0 -15.03272,-10e-4 -15.10862,-11.365038 a 8.8551251,8.8551251 0 0 1 2.05511,-6.36352 c 1.66303,-1.86338 4.10313,-2.808269 7.25194,-2.808269 h 73.18533 c 3.94791,0 8.55815,2.371989 8.55815,9.057599 0,7.07632 -5.38501,11.472258 -14.05352,11.472258 h -60.27981 c -0.22223,0 -0.45869,0.002 -0.70705,0.004 -0.28611,0.002 -0.58767,0.004 -0.90153,0.004 z m -5.80157,-15.576488 c -1.65838,0 -2.84615,0.37951 -3.53051,1.12829 a 3.9770469,3.9770469 0 0 0 -0.8296,2.71622 l 0.0158,0.13963 -0.003,0.11311 c 0,4.7519 2.75069,6.51889 10.14881,6.51889 0.30265,0 0.59354,-0.002 0.86966,-0.004 0.25958,-0.002 0.50657,-0.004 0.73892,-0.004 h 60.27985 c 3.39619,0 9.09315,-0.84601 9.09315,-6.51191 0,-1.75876 -0.37296,-4.09725 -3.59781,-4.09725 z"
       id="path137"
       style="fill:#6cb33f;stroke-width:0.503113" />
  </g>
</svg>